<?xml version="1.0" encoding="UTF-8" standalone="no"?>
<!-- Created with Inkscape (http://www.inkscape.org/) -->

<svg
   xmlns:dc="http://purl.org/dc/elements/1.1/"
   xmlns:cc="http://creativecommons.org/ns#"
   xmlns:rdf="http://www.w3.org/1999/02/22-rdf-syntax-ns#"
   xmlns:svg="http://www.w3.org/2000/svg"
   xmlns="http://www.w3.org/2000/svg"
   xmlns:sodipodi="http://sodipodi.sourceforge.net/DTD/sodipodi-0.dtd"
   xmlns:inkscape="http://www.inkscape.org/namespaces/inkscape"
   width="715.40625"
   height="188.43823"
   viewBox="0 0 189.28457 49.857617"
   version="1.1"
   id="svg8"
   inkscape:export-filename="C:\Users\ramsd\Downloads\engine_logo.png"
   inkscape:export-xdpi="274.59396"
   inkscape:export-ydpi="274.59396"
   inkscape:version="0.92.4 (5da689c313, 2019-01-14)"
   sodipodi:docname="seeslogo.svg">
  <defs
     id="defs2" />
  <sodipodi:namedview
     id="base"
     pagecolor="#ffffff"
     bordercolor="#666666"
     borderopacity="1.0"
     inkscape:pageopacity="0.0"
     inkscape:pageshadow="2"
     inkscape:zoom="0.98994949"
     inkscape:cx="383.21881"
     inkscape:cy="-43.686552"
     inkscape:document-units="px"
     inkscape:current-layer="layer1"
     showgrid="false"
     units="px"
     inkscape:snap-bbox="true"
     inkscape:bbox-paths="true"
     inkscape:bbox-nodes="true"
     fit-margin-top="0"
     fit-margin-left="0"
     fit-margin-right="0"
     fit-margin-bottom="0"
     inkscape:window-width="1920"
     inkscape:window-height="1017"
     inkscape:window-x="1912"
     inkscape:window-y="-8"
     inkscape:window-maximized="1" />
  <metadata
     id="metadata5">
    <rdf:RDF>
      <cc:Work
         rdf:about="">
        <dc:format>image/svg+xml</dc:format>
        <dc:type
           rdf:resource="http://purl.org/dc/dcmitype/StillImage" />
        <dc:title></dc:title>
      </cc:Work>
    </rdf:RDF>
  </metadata>
  <g
     inkscape:label="Calque 1"
     inkscape:groupmode="layer"
     id="layer1"
     transform="translate(-12.153263,-15.226267)">
    <g
       aria-label="SUPER ELDERL"
       transform="matrix(0.26458333,0,0,0.26458333,6.8147782,-72.076837)"
       style="font-style:normal;font-variant:normal;font-weight:normal;font-stretch:normal;font-size:40px;line-height:1.25;font-family:TINTIN;-inkscape-font-specification:TINTIN;letter-spacing:0px;word-spacing:0px;fill:#fc0c18;fill-opacity:1;stroke:none"
       id="flowRoot90290" />
    <flowRoot
       xml:space="preserve"
       id="flowRoot90313"
       style="font-style:normal;font-variant:normal;font-weight:normal;font-stretch:normal;font-size:40px;line-height:1.25;font-family:TINTIN;-inkscape-font-specification:TINTIN;letter-spacing:0px;word-spacing:0px;fill:#000000;fill-opacity:1;stroke:none"
       transform="scale(0.26458333)"><flowRegion
         id="flowRegion90315"><rect
           id="rect90317"
           width="102.02541"
           height="73.741135"
           x="372.74628"
           y="535.62103" /></flowRegion><flowPara
         id="flowPara90319"></flowPara></flowRoot>    <path
       style="opacity:1;fill:#fc0c18;fill-opacity:1;stroke:none;stroke-width:6.64242363;stroke-linecap:round;stroke-linejoin:miter;stroke-miterlimit:4;stroke-dasharray:none;stroke-dashoffset:0;stroke-opacity:0.99742886;paint-order:normal"
       d="m 45.933594,201.98633 v 44 H 761.33984 v -44 z m 14.160156,5.19531 h 9.117188 l -0.65625,3.79688 h -5.0625 L 61.59375,221.5957 h 5.039062 l -0.703124,3.75 h -5.015626 l -2.085937,11.69532 h 4.96875 l -0.679687,3.75 H 54 Z m 46.90625,0 h 4.05469 c 1.17187,12.125 1.78125,20.67969 1.82812,25.66406 0.15625,-4.40625 1.375,-12.96093 3.65625,-25.66406 h 4.05469 L 114.5,240.79102 h -4.05469 c -1.15625,-12.07813 -1.75781,-20.42969 -1.80469,-25.05469 -0.15624,3.875 -1.375,12.22656 -3.65624,25.05469 h -4.07813 z m 53.79688,0 h 5.69531 c 0.8125,0 1.50781,0.29688 2.08593,0.89063 0.59375,0.59375 0.89063,1.3125 0.89063,2.15625 0,0.23437 -0.0156,0.41406 -0.0469,0.53906 l -1.5,8.39062 h -3.89063 l 1.26563,-7.07812 v -0.14063 c 0,-0.28125 -0.0938,-0.51562 -0.28126,-0.70312 -0.18749,-0.17188 -0.42187,-0.25781 -0.70312,-0.25781 h -2.17969 c -0.32812,0 -0.63281,0.10937 -0.91406,0.32812 -0.26562,0.20313 -0.42969,0.46094 -0.49219,0.77344 l -4.28906,23.83594 v 0.11718 c 0,0.26563 0.0937,0.5 0.28125,0.70313 0.1875,0.20312 0.42188,0.30469 0.70313,0.30469 h 2.15624 c 0.76563,0 1.24219,-0.39063 1.42969,-1.17188 l 1.92188,-10.28906 h -2.22657 l 0.67969,-3.75 H 167.5 l -2.90625,15.9375 c -0.17187,0.85937 -0.60938,1.57812 -1.3125,2.15625 -0.70312,0.57812 -1.5,0.86719 -2.39063,0.86719 h -5.60156 c -0.82812,0 -1.53125,-0.29688 -2.10937,-0.89063 -0.57813,-0.59375 -0.86719,-1.30469 -0.86719,-2.13281 v -0.58594 l 4.82812,-26.95312 c 0.17188,-0.875 0.60157,-1.60157 1.28907,-2.17969 0.70312,-0.57813 1.49219,-0.86719 2.36719,-0.86719 z m 47.72656,0 h 4.03125 l -6.09375,33.60938 h -4.05469 z m 41.82031,0 h 4.05469 c 1.17187,12.125 1.78125,20.67969 1.82812,25.66406 0.15625,-4.40625 1.375,-12.96093 3.65625,-25.66406 h 4.05469 l -6.09375,33.60938 h -4.05469 c -1.15625,-12.07813 -1.75781,-20.42969 -1.80468,-25.05469 -0.15625,3.875 -1.37501,12.22656 -3.65626,25.05469 H 244.25 Z m 51.40625,0 h 9.11719 l -0.65625,3.79688 h -5.0625 L 303.25,221.5957 h 5.03906 l -0.70312,3.75 h -5.01563 l -2.08593,11.69532 h 4.96874 l -0.67968,3.75 h -9.11719 z m 91.35156,0 h 5.625 c 0.8125,0 1.51563,0.29688 2.10938,0.89063 0.60937,0.59375 0.91406,1.3125 0.91406,2.15625 0,0.23437 -0.0156,0.41406 -0.0469,0.53906 l -1.47656,8.27344 h -3.9375 l 1.24219,-6.96094 c 0.0312,-0.0469 0.0469,-0.0937 0.0469,-0.14063 0,-0.26562 -0.10156,-0.5 -0.30468,-0.70312 -0.20313,-0.17188 -0.4375,-0.25781 -0.70313,-0.25781 h -2.15625 c -0.34375,0 -0.64844,0.10937 -0.91406,0.32812 -0.26562,0.20313 -0.42969,0.46094 -0.49219,0.77344 l -0.67969,3.72656 c -0.0469,0.28125 -0.0703,0.57031 -0.0703,0.86719 0,1.125 0.35938,2.26562 1.07813,3.42187 2.57812,4.42188 3.97656,6.89063 4.19531,7.40625 0.40625,0.75 0.60937,1.5625 0.60937,2.4375 10e-6,0.4375 -0.0469,0.88282 -0.14062,1.33594 l -1.19531,6.49219 c -0.1875,0.85937 -0.61719,1.57812 -1.28907,2.15625 -0.70312,0.57812 -1.50781,0.86719 -2.41406,0.86719 H 387.5 c -0.82812,0 -1.52344,-0.29688 -2.08594,-0.89063 -0.54687,-0.57812 -0.82031,-1.28906 -0.82031,-2.13281 v -0.53906 l 1.47656,-8.53125 h 3.89063 l -1.26563,7.21875 v 0.11718 c 0,0.26563 0.0937,0.5 0.28125,0.70313 0.1875,0.20312 0.41407,0.30469 0.67969,0.30469 h 2.15625 c 0.34375,0 0.65625,-0.10938 0.9375,-0.32813 0.28125,-0.23437 0.46094,-0.51562 0.53906,-0.84375 l 0.84375,-4.73437 c 0.0312,-0.14063 0.0469,-0.28907 0.0469,-0.44532 0,-0.64062 -0.27344,-1.44531 -0.82031,-2.41406 -0.25,-0.45312 -0.92188,-1.70312 -2.01563,-3.75 -1.21875,-2.29687 -1.92188,-3.625 -2.10937,-3.98437 -0.59375,-1.17188 -0.89063,-2.32813 -0.89063,-3.46875 0,-0.34375 0.0234,-0.6875 0.0703,-1.03125 l 1.00782,-5.8125 c 0.17187,-0.875 0.60937,-1.60157 1.3125,-2.17969 0.68749,-0.57813 1.47656,-0.86719 2.36718,-0.86719 z m 49.97656,0 h 5.69532 c 0.8125,0 1.50781,0.29688 2.08594,0.89063 0.59374,0.59375 0.89062,1.3125 0.89062,2.15625 0,0.23437 -0.0156,0.41406 -0.0469,0.53906 l -4.82812,27 c -0.17187,0.85937 -0.60938,1.57812 -1.3125,2.15625 -0.70312,0.57812 -1.5,0.86719 -2.39062,0.86719 h -5.60157 c -0.82812,0 -1.53125,-0.29688 -2.10937,-0.89063 -0.57813,-0.59375 -0.86719,-1.30469 -0.86719,-2.13281 v -0.58594 l 4.82813,-26.95312 c 0.17187,-0.875 0.60156,-1.60157 1.28906,-2.17969 0.70312,-0.57813 1.49219,-0.86719 2.36718,-0.86719 z m 47.70313,0 h 9.11719 l -0.65625,3.79688 h -5.0625 l -1.89844,10.61718 h 5.03906 l -0.70312,3.75 h -5.01563 l -2.76562,15.44532 h -4.14844 z m 46.15625,0 h 9.77344 l -0.72656,3.79688 h -2.78907 l -5.39062,29.8125 h -4.10157 l 5.4375,-29.8125 h -2.88281 z m 45.75781,0 h 3.82031 l -1.92187,21.86719 7.875,-21.86719 h 3.42187 l -1.92187,21.86719 7.875,-21.86719 h 4.28906 l -12.65625,33.60938 h -4.03125 l 1.875,-20.25 -7.21875,20.25 h -4.03125 z m 66.17188,0 h 4.03125 l -2.625,33.60938 h -3.82032 l 0.53907,-5.53125 h -4.59375 L 640.5,240.79102 h -4.28906 z m 44.75,0 h 9.02343 c 0.8125,0 1.51563,0.29688 2.10938,0.89063 0.59375,0.57812 0.90625,1.28906 0.9375,2.13281 0,0.0781 -0.0312,0.26562 -0.0937,0.5625 l -1.875,10.59375 c -0.29687,1.46875 -1.16406,2.40625 -2.60156,2.8125 0.54687,0.20312 0.96094,0.5625 1.24219,1.07812 0.21874,0.40625 0.32812,0.85938 0.32812,1.35938 0,0.10937 -0.008,0.22656 -0.0234,0.35156 0,0.23438 -0.008,0.41406 -0.0234,0.53906 l -2.4375,13.28907 h -4.125 l 2.46094,-13.75782 v -0.11718 c 0,-0.26563 -0.0937,-0.49219 -0.28125,-0.67969 -0.1875,-0.1875 -0.41406,-0.28125 -0.67969,-0.28125 h -3.25781 l -2.625,14.83594 h -4.10156 z m 50.53906,0 h 9.11719 l -0.65625,3.79688 h -5.0625 l -1.89844,10.61718 h 5.03906 l -0.70312,3.75 h -5.01563 l -2.08594,11.69532 h 4.96876 l -0.67969,3.75 h -9.11719 z m -299.74219,3.79688 c -0.32812,0 -0.63281,0.10937 -0.91406,0.32812 -0.26562,0.20313 -0.42969,0.46094 -0.49219,0.77344 l -4.28906,23.83594 v 0.11718 c 0,0.26563 0.0937,0.5 0.28125,0.70313 0.1875,0.20312 0.42188,0.30469 0.70312,0.30469 h 2.15626 c 0.76562,0 1.24218,-0.39063 1.42968,-1.17188 l 4.28906,-23.78906 v -0.14063 c 10e-6,-0.28125 -0.0937,-0.51562 -0.28124,-0.70312 -0.1875,-0.17188 -0.42188,-0.25781 -0.70313,-0.25781 z m 252.625,0 -1.99218,10.96875 h 3.25781 c 0.34375,0 0.64844,-0.11719 0.91406,-0.35157 0.26562,-0.21875 0.42188,-0.49218 0.46875,-0.82031 l 1.59375,-8.69531 v -0.14063 c 0,-0.28125 -0.0937,-0.51562 -0.28125,-0.70312 -0.20312,-0.17188 -0.44531,-0.25781 -0.72656,-0.25781 z m -48.19531,5.60156 -5.13281,14.88281 h 3.65625 z"
       transform="scale(0.26458333)"
       id="rect90332"
       inkscape:connector-curvature="0" />
    <g
       aria-label="Y"
       transform="matrix(0.26458333,0,0,0.26458333,172.49358,-72.076837)"
       style="font-style:normal;font-variant:normal;font-weight:normal;font-stretch:normal;font-size:40px;line-height:1.25;font-family:TINTIN;-inkscape-font-specification:TINTIN;letter-spacing:0px;word-spacing:0px;fill:#fc0c18;fill-opacity:1;stroke:none"
       id="flowRoot90290-9">
      <path
         id="path90388"
         style="font-style:italic;font-variant:normal;font-weight:normal;font-stretch:normal;font-size:192px;font-family:SNES;-inkscape-font-specification:'SNES, Italic';font-variant-ligatures:normal;font-variant-caps:normal;font-variant-numeric:normal;font-feature-settings:normal;text-align:start;writing-mode:lr-tb;text-anchor:start;fill:#fc0c18;fill-opacity:1"
         d="m 51.146484,412.46449 -3.84375,-82.5 h 16.125 l -0.1875,59.71875 24.09375,-59.71875 h 17.062496 l -37.031246,82.21875 -9.46875,52.21875 H 41.677734 Z M 6.3026248,449.40199 H 26.177625 l -2.71875,15 h -36.46875 l 24.375,-134.4375 h 16.3125 z m -38.3437498,-60.375 q 2.0625,0 3.65625,-1.40625 1.59375,-1.3125 1.875,-3.28125 l 6.375,-34.78125 v -0.5625 q 0,-1.6875 -1.125,-2.8125 -1.21875,-1.03125 -2.90625,-1.03125 h -12.9375 l -7.96875,43.875 z m 0.9375,19.875 q 0,-1.59375 -1.125,-2.71875 -1.125,-1.125 -2.71875,-1.125 h -13.03125 l -10.5,59.34375 h -16.40625 l 24.09375,-134.4375 h 36.09375 q 4.8749998,0 8.4374998,3.5625 3.5625,3.46875 3.75,8.53125 0,0.46875 -0.375,2.25 l -7.4999998,42.375 q -1.78125,8.8125 -10.40625,11.25 3.28125,1.21875 4.96875,4.3125 1.3125,2.4375 1.3125,5.4375 0,0.65625 -0.0937,1.40625 0,1.40625 -0.0937,2.15625 l -9.75,53.15625 h -16.5 l 9.84375,-55.03125 z m -67.03125,-78.9375 h 36.46875 l -2.625,15.1875 h -20.25 l -7.59375,42.46875 h 20.15625 l -2.8125,15 h -20.0625 l -8.343755,46.78125 h 19.875005 l -2.71875,15 h -36.468755 z m -55.687505,119.4375 q 2.0625,0 3.65625,-1.3125 1.59375,-1.3125 1.875,-3.375 l 17.34375,-95.15625 q 0.0937,-0.28125 0.0937,-0.5625 0,-1.6875 -1.125,-2.8125 -1.125,-1.03125 -2.8125,-1.03125 h -14.53125 l -19.03125,104.25 z m 27.65625,-119.4375 q 4.96875,0 8.53125,3.5625 3.5625,3.5625 3.5625,8.625 0,0.5625 -0.375,2.15625 l -19.40625,108 q -0.9375,5.15625 -5.0625,8.625 -4.125,3.46875 -9.46875,3.46875 h -38.625 l 24.375,-134.4375 z m -89.15625,119.4375 h 19.875 l -2.71875,15 h -36.46875 l 24.375,-134.4375 h 16.3125 z m -42.5625,-119.4375 h 36.46875 l -2.625,15.1875 h -20.25 l -7.59375,42.46875 h 20.15625 l -2.8125,15 h -20.0625 l -8.34375,46.78125 h 19.875 l -2.71875,15 h -36.46875 z m -71.53125,59.0625 q 2.0625,0 3.65625,-1.40625 1.59375,-1.3125 1.875,-3.28125 l 6.375,-34.78125 v -0.5625 q 0,-1.6875 -1.125,-2.8125 -1.21875,-1.03125 -2.90625,-1.03125 h -12.9375 l -7.96875,43.875 z m 0.9375,19.875 q 0,-1.59375 -1.125,-2.71875 -1.125,-1.125 -2.71875,-1.125 h -13.03125 l -10.5,59.34375 h -16.40625 l 24.09375,-134.4375 h 36.09375 q 4.875,0 8.4375,3.5625 3.5625,3.46875 3.75,8.53125 0,0.46875 -0.375,2.25 l -7.5,42.375 q -1.78125,8.8125 -10.40625,11.25 3.28125,1.21875 4.96875,4.3125 1.3125,2.4375 1.3125,5.4375 0,0.65625 -0.0937,1.40625 0,1.40625 -0.0937,2.15625 l -9.75,53.15625 h -16.5 l 9.84375,-55.03125 z m -67.03125,-78.9375 h 36.46875 l -2.625,15.1875 h -20.25 l -7.59375,42.46875 h 20.15625 l -2.8125,15 h -20.0625 l -8.34375,46.78125 h 19.875 l -2.71875,15 h -36.46875 z m -42.28125,59.0625 q 2.0625,0 3.65625,-1.3125 1.59375,-1.21875 1.875,-3.1875 l 6.65625,-34.96875 v -0.5625 q 0,-1.6875 -1.125,-2.8125 -1.125,-1.03125 -2.71875,-1.03125 h -13.40625 l -8.15625,43.875 z m -42.84375,75.375 24.375,-134.4375 h 35.34375 q 4.96875,0 8.4375,3.5625 3.5625,3.5625 3.5625,8.625 0,0.65625 -0.28125,2.15625 l -8.625,47.625 q -0.9375,5.25 -5.0625,8.71875 -4.125,3.46875 -9.46875,3.46875 h -21.09375 l -10.96875,60.28125 z m -43.78125,-19.5 v 0.46875 q 0,1.59375 1.03125,2.8125 1.21875,1.21875 2.8125,1.21875 h 8.625 q 4.59375,0 5.71875,-4.6875 l 20.8125,-114.75 h 15.9375 l -22.40625,122.34375 q -1.03125,5.15625 -5.15625,8.625 -4.21875,3.46875 -9.65625,3.46875 h -22.59374 q -4.78125,0 -8.25,-3.5625 -3.46875,-3.5625 -3.46875,-8.53125 v -2.34375 l 21.65624,-120 h 15.5625 z m -41.62499,-63.28125 q 15.46875,26.53125 16.78125,29.625 2.4375,4.5 2.4375,9.75 0,2.625 -0.5625,5.34375 l -4.78125,25.96875 q -1.125,5.15625 -5.15625,8.625 -4.21875,3.46875 -9.65625,3.46875 h -22.40625 q -4.96875,0 -8.34375,-3.5625 -3.28125,-3.46875 -3.28125,-8.53125 v -2.15625 l 5.90625,-34.125 h 15.5625 l -5.0625,28.875 v 0.46875 q 0,1.59375 1.125,2.8125 1.125,1.21875 2.71875,1.21875 h 8.625 q 2.0625,0 3.75,-1.3125 1.6875,-1.40625 2.15625,-3.375 l 3.375,-18.9375 q 0.1875,-0.84375 0.1875,-1.78125 0,-3.84375 -3.28125,-9.65625 -1.5,-2.71875 -8.0625,-15 -7.3125,-13.78125 -8.4375,-15.9375 -3.5625,-7.03125 -3.5625,-13.875 0,-2.0625 0.28125,-4.125 l 4.03125,-23.25 q 1.03125,-5.25 5.25,-8.71875 4.125,-3.46875 9.46875,-3.46875 h 22.5 q 4.875,0 8.4375,3.5625 3.65625,3.5625 3.65625,8.625 0,1.40625 -0.1875,2.15625 l -5.90625,33.09375 h -15.75 l 4.96875,-27.84375 q 0.1875,-0.28125 0.1875,-0.5625 0,-1.59375 -1.21875,-2.8125 -1.21875,-1.03125 -2.8125,-1.03125 h -8.625 q -2.0625,0 -3.65625,1.3125 -1.59375,1.21875 -1.96875,3.09375 l -2.71875,14.90625 q -0.28125,1.6875 -0.28125,3.46875 0,6.75 4.3125,13.6875 z"
         inkscape:connector-curvature="0" />
    </g>
  </g>
</svg>
